<svg width="48" height="48" viewBox="0 0 48 48" fill="none" xmlns="http://www.w3.org/2000/svg">
<path d="M0 6C0 2.68629 2.68629 0 6 0H42C45.3137 0 48 2.68629 48 6V48H6C2.68629 48 0 45.3137 0 42V6Z" fill="white"/>
<path d="M31.4 38.36C29.624 38.36 27.968 38.036 26.432 37.388C24.92 36.74 23.6 35.828 22.472 34.652C21.344 33.476 20.468 32.12 19.844 30.584C19.244 29.024 18.944 27.356 18.944 25.58C18.944 23.804 19.244 22.148 19.844 20.612C20.468 19.052 21.332 17.696 22.436 16.544C23.564 15.392 24.884 14.492 26.396 13.844C27.908 13.196 29.54 12.872 31.292 12.872C33.188 12.872 34.88 13.208 36.368 13.88C37.88 14.552 39.2 15.476 40.328 16.652L38.528 18.452C37.664 17.492 36.62 16.748 35.396 16.22C34.172 15.668 32.804 15.392 31.292 15.392C29.9 15.392 28.616 15.644 27.44 16.148C26.288 16.652 25.268 17.372 24.38 18.308C23.516 19.22 22.844 20.3 22.364 21.548C21.908 22.772 21.68 24.116 21.68 25.58C21.68 27.044 21.92 28.4 22.4 29.648C22.88 30.896 23.552 31.988 24.416 32.924C25.28 33.836 26.3 34.544 27.476 35.048C28.652 35.552 29.936 35.804 31.328 35.804C32.912 35.804 34.316 35.528 35.54 34.976C36.788 34.424 37.844 33.668 38.708 32.708L40.508 34.544C39.404 35.72 38.084 36.656 36.548 37.352C35.012 38.024 33.296 38.36 31.4 38.36Z" fill="#0F172A"/>
<path d="M11.94 38V33.644H18.384C20.016 33.644 21.444 33.308 22.668 32.636C23.892 31.94 24.84 30.968 25.512 29.72C26.208 28.472 26.556 26.996 26.556 25.292C26.556 23.636 26.208 22.196 25.512 20.972C24.816 19.724 23.856 18.764 22.632 18.092C21.408 17.396 19.992 17.048 18.384 17.048H11.832V12.692H18.456C20.328 12.692 22.056 13.004 23.64 13.628C25.248 14.252 26.64 15.14 27.816 16.292C29.016 17.42 29.94 18.752 30.588 20.288C31.26 21.824 31.596 23.504 31.596 25.328C31.596 27.152 31.26 28.844 30.588 30.404C29.94 31.94 29.028 33.284 27.852 34.436C26.676 35.564 25.284 36.44 23.676 37.064C22.092 37.688 20.376 38 18.528 38H11.94ZM8.592 38V12.692H13.488V38H8.592Z" fill="#0F172A"/>
</svg>
